<?xml version="1.0" encoding="utf-8"?>
<!-- Generator: Adobe Illustrator 24.3.0, SVG Export Plug-In . SVG Version: 6.00 Build 0)  -->
<svg version="1.1" id="Layer_1" xmlns="http://www.w3.org/2000/svg" xmlns:xlink="http://www.w3.org/1999/xlink" x="0px" y="0px"
	 width="512px" height="512px" viewBox="0 0 512 512" enable-background="new 0 0 512 512" xml:space="preserve">
<g>
	<path fill="#414280" d="M298.2,453.1H122.1c-62,0-112.4-50.4-112.4-112.4s50.4-112.4,112.4-112.4h9.4c5.2,0,9.5,4.3,9.5,9.5
		c0,5.2-4.3,9.5-9.5,9.5h-9.4c-51.5,0-93.4,41.9-93.4,93.4c0,51.5,41.9,93.4,93.4,93.4h176.2c51.5,0,93.4-41.9,93.4-93.4
		c0-33.8-18.4-65.1-48-81.6l-4.9-2.7l0-5.6c0-0.2,0-0.4,0-0.6l0,0.1c0-50.4-44.6-91.5-99.4-91.5c-13.7,0-27,2.5-39.4,7.5
		c-4.9,1.9-10.4-0.4-12.3-5.3c-1.9-4.9,0.4-10.4,5.3-12.3c14.7-5.9,30.3-8.8,46.5-8.8c63.5,0,115.5,46.9,118.3,105.6
		c32.8,20.5,52.9,56.5,52.9,95.4C410.7,402.7,360.2,453.1,298.2,453.1z"/>
	<path fill="#FCC345" d="M357.1,106.4c-32.3,0-61.1,15.4-79.3,39.3c45,14.4,77.8,53.3,80,99.6c19.4,12.2,34.4,29.8,43.4,50.2
		c32.9-16.3,55.6-50.2,55.6-89.4C456.8,151.1,412.1,106.4,357.1,106.4z"/>
	<path fill="#CDCCE7" d="M209,181.3c10.9-4.3,22.9-6.8,35.6-6.8c49.8,0,90.2,37.4,90.2,83.6c0,0.2,0,0.3,0,0.5
		c26.1,14.6,43.7,42.4,43.7,74.5v0c0,47.1-38.2,85.2-85.2,85.2H147.3c-47.1,0-85.2-38.2-85.2-85.2v0c0-47.1,38.2-85.2,85.2-85.2h7.8
		C155.1,247.8,167.1,200.1,209,181.3z"/>
	<path fill="#414280" d="M62.7,324.3c-1.6,0-3.2-0.4-4.7-1.2c-4.6-2.6-6.2-8.4-3.6-12.9c16.5-29.2,47.5-47.3,81-47.3h7.6
		c5.2,0,9.5,4.3,9.5,9.5c0,5.2-4.3,9.5-9.5,9.5h-7.6c-26.7,0-51.4,14.4-64.5,37.7C69.2,322.6,66,324.3,62.7,324.3z"/>
	<path fill="#414280" d="M98.1,343.5c-1.6,0-3.2-0.4-4.7-1.2c-4.6-2.6-6.2-8.4-3.6-12.9c9.5-16.9,27.5-27.4,46.8-27.4h4
		c5.2,0,9.5,4.3,9.5,9.5c0,5.2-4.3,9.5-9.5,9.5h-4c-12.5,0-24.1,6.8-30.3,17.7C104.6,341.7,101.4,343.5,98.1,343.5z"/>
	<path fill="#FCC345" d="M354.2,96.7c-5.2,0-9.5-4.3-9.5-9.5V67.4c0-5.2,4.3-9.5,9.5-9.5s9.5,4.3,9.5,9.5v19.8
		C363.7,92.4,359.4,96.7,354.2,96.7z"/>
	<path fill="#FCC345" d="M273.2,132.5c-2.4,0-4.9-0.9-6.7-2.8l-14-14c-3.7-3.7-3.7-9.7,0-13.4c3.7-3.7,9.7-3.7,13.4,0l14,14
		c3.7,3.7,3.7,9.7,0,13.4C278.1,131.5,275.7,132.5,273.2,132.5z"/>
	<path fill="#FCC345" d="M454.6,306c-2.4,0-4.9-0.9-6.7-2.8l-14-14c-3.7-3.7-3.7-9.7,0-13.4c3.7-3.7,9.7-3.7,13.4,0l14,14
		c3.7,3.7,3.7,9.7,0,13.4C459.4,305.1,457,306,454.6,306z"/>
	<path fill="#FCC345" d="M492.3,209.5h-19.8c-5.2,0-9.5-4.3-9.5-9.5c0-5.2,4.3-9.5,9.5-9.5h19.8c5.2,0,9.5,4.3,9.5,9.5
		C501.8,205.3,497.5,209.5,492.3,209.5z"/>
	<path fill="#FCC345" d="M436.7,128.6c-2.4,0-4.9-0.9-6.7-2.8c-3.7-3.7-3.7-9.7,0-13.4l14-14c3.7-3.7,9.7-3.7,13.4,0
		c3.7,3.7,3.7,9.7,0,13.4l-14,14C441.6,127.7,439.1,128.6,436.7,128.6z"/>
</g>
</svg>
